<svg xmlns="http://www.w3.org/2000/svg" viewBox="0 0 512 512">
  <path fill="#000000" d="M108 410c-12.15 0-22-9.85-22-22V270c0-12.15 9.85-22 22-22h36c12.15 0 22 9.85 22 22v118c0 12.15-9.85 22-22 22h-36Zm130 0c-12.15 0-22-9.85-22-22V210c0-12.15 9.85-22 22-22h36c12.15 0 22 9.85 22 22v178c0 12.15-9.85 22-22 22h-36Zm130 0c-12.15 0-22-9.85-22-22V136c0-12.15 9.85-22 22-22h36c12.15 0 22 9.85 22 22v252c0 12.15-9.85 22-22 22h-36Zm-244.1-74.89c-7.41 0-14.72-3.33-19.55-9.68-8.18-10.79-6.06-26.18 4.73-34.35l108.57-82.32c7.15-5.43 16.88-6.43 25.02-2.58l66.63 31.53 92.22-108.23c8.77-10.29 24.25-11.53 34.54-2.76 10.29 8.77 11.53 24.25 2.76 34.54L334.6 281.56c-7.22 8.47-19.13 11.01-29.13 6.29l-69.11-32.7-97.67 74.05a24.4 24.4 0 0 1-14.79 4.91Z" />
</svg>
